<?xml version="1.0" standalone="no"?><!DOCTYPE svg PUBLIC "-//W3C//DTD SVG 1.1//EN" "http://www.w3.org/Graphics/SVG/1.1/DTD/svg11.dtd"><svg t="1658734889052" class="icon" viewBox="0 0 1082 1024" version="1.1" xmlns="http://www.w3.org/2000/svg" p-id="35973" xmlns:xlink="http://www.w3.org/1999/xlink" width="211.328125" height="200"><defs><style type="text/css"></style></defs><path d="M349.079273 1015.249455a537.623273 537.623273 0 0 1-150.865455-87.389091c-22.574545-18.501818-31.185455-49.803636-21.352727-77.847273a149.451636 149.451636 0 0 0-11.403636-124.101818 149.312 149.312 0 0 0-101.527273-72.261818c-29.207273-5.585455-51.956364-28.741818-56.610909-57.6a542.190545 542.190545 0 0 1-0.756364-167.214546c4.363636-29.032727 26.938182-52.421818 56.203636-58.298182a149.527273 149.527273 0 0 0 101.003637-73.134545 149.265455 149.265455 0 0 0 10.414545-124.16c-10.065455-27.927273-1.745455-59.287273 20.712728-78.021818a538.676364 538.676364 0 0 1 154.181818-90.181819c27.52-10.472727 58.821818-2.443636 77.905454 19.84 28.509091 33.338182 69.934545 52.48 113.687273 52.48s85.236364-19.141818 113.687273-52.48c19.083636-22.283636 50.327273-30.312727 77.847272-19.898181a539.677091 539.677091 0 0 1 150.865455 87.330909c22.632727 18.56 31.185455 49.861818 21.352727 77.905454a149.451636 149.451636 0 0 0 11.403637 124.101818 149.312 149.312 0 0 0 101.527272 72.261819c29.207273 5.585455 51.956364 28.741818 56.610909 57.658181a542.190545 542.190545 0 0 1 0.756364 167.156364c-4.363636 29.032727-26.996364 52.421818-56.203636 58.298182a149.288727 149.288727 0 0 0-100.945455 73.134545 149.265455 149.265455 0 0 0-10.414545 124.16c10.065455 27.927273 1.745455 59.287273-20.712728 78.021819a538.676364 538.676364 0 0 1-154.181818 90.181818c-27.52 10.472727-58.821818 2.443636-77.905454-19.84a149.445818 149.445818 0 0 0-113.687273-52.48 149.352727 149.352727 0 0 0-113.687273 52.48 69.876364 69.876364 0 0 1-53.178182 24.436363c-8.32 0-16.64-1.454545-24.727272-4.538181z" fill="#5874CF" p-id="35974"></path><path d="M540.666182 873.111273c64.232727 0 124.974545 28.043636 166.749091 76.916363a469.911273 469.911273 0 0 0 134.225454-78.545454c-0.116364 0.116364-0.058182-0.290909-0.232727-0.756364a219.229091 219.229091 0 0 1 15.301818-182.109091 219.357091 219.357091 0 0 1 148.072727-107.287272c0.581818-0.116364 0.872727-0.407273 0.93091-0.465455 3.432727-23.098182 5.236364-46.952727 5.236363-70.690909 0-24.843636-1.978182-49.92-5.934545-74.530909a1.524364 1.524364 0 0 0-0.814546-0.349091 219.229091 219.229091 0 0 1-165.701818-288.116364c0.174545-0.523636 0.116364-0.930909 0.058182-0.989091a469.934545 469.934545 0 0 0-131.141818-75.810909 219.333818 219.333818 0 0 1-166.807273 76.858182c-64.232727 0-124.974545-28.043636-166.749091-76.916364a467.234909 467.234909 0 0 0-134.225454 78.545455c0.058182-0.058182 0.058182 0.290909 0.232727 0.814545a219.229091 219.229091 0 0 1-15.301818 182.109091 219.106909 219.106909 0 0 1-148.072728 107.229091c-0.581818 0.116364-0.872727 0.407273-0.930909 0.465455-3.432727 23.098182-5.236364 46.952727-5.236363 70.690909 0 24.901818 2.036364 50.036364 5.992727 74.705454 0-0.174545 0.290909 0.058182 0.814545 0.174546a219.229091 219.229091 0 0 1 165.701819 288.116364c-0.174545 0.523636-0.116364 0.930909-0.058182 0.98909a469.934545 469.934545 0 0 0 131.141818 75.81091 219.118545 219.118545 0 0 1 166.749091-76.858182z" fill="#839EF8" p-id="35975"></path><path d="M540.666182 729.518545c-120.96 0-219.345455-98.385455-219.345455-219.345454 0-120.96 98.385455-219.345455 219.345455-219.345455 120.96 0 219.345455 98.385455 219.345454 219.345455 0 120.901818-98.385455 219.345455-219.345454 219.345454z m0-368.930909c-82.443636 0-149.527273 67.083636-149.527273 149.527273s67.083636 149.527273 149.527273 149.527273 149.527273-67.083636 149.527273-149.527273-67.083636-149.527273-149.527273-149.527273z" fill="#FFFFFF" p-id="35976"></path></svg>