<svg t="1717655975256" class="icon" viewBox="0 0 1024 1024" version="1.1" xmlns="http://www.w3.org/2000/svg" p-id="3745" width="200" height="200"><path d="M0.123733 0m42.666667 0l0 0q42.666667 0 42.666667 42.666667l0 938.666666q0 42.666667-42.666667 42.666667l0 0q-42.666667 0-42.666667-42.666667l0-938.666666q0-42.666667 42.666667-42.666667Z" fill="#191919" p-id="3746"></path><path d="M0.123733 938.666667m42.666667 0l938.666667 0q42.666667 0 42.666666 42.666666l0 0q0 42.666667-42.666666 42.666667l-938.666667 0q-42.666667 0-42.666667-42.666667l0 0q0-42.666667 42.666667-42.666666Z" fill="#191919" p-id="3747"></path><path d="M576.123733 87.936a64 64 0 0 1 101.376-8.106667l3.584 4.309334 334.506667 444.885333a42.666667 42.666667 0 0 1-64.768 55.381333l-3.456-4.096-316.117333-420.437333-181.12 281.002667c-2.218667 3.413333-4.736 6.656-7.552 9.6l-4.437334 4.181333a64 64 0 0 1-85.76-1.92l-4.522666-4.736-87.04-100.906667-186.666667 202.410667a42.666667 42.666667 0 0 1-56.149333 5.802667l-4.138667-3.413334a42.666667 42.666667 0 0 1-5.802667-56.106666l3.370667-4.181334 202.922667-219.946666a64 64 0 0 1 90.453333-3.626667l5.034667 5.248 84.010666 97.365333 182.272-282.709333z" fill="#191919" p-id="3748"></path><path d="M625.915733 515.968a64 64 0 0 1 98.346667-15.146667l4.736 4.778667 284.330667 319.36a42.666667 42.666667 0 0 1-59.946667 60.501333l-3.797333-3.754666-264.746667-297.429334-125.866667 216.106667a64 64 0 0 1-82.858666 23.125333l-5.376-2.986666-205.909334-129.536-197.376 139.946666a42.666667 42.666667 0 0 1-56.106666-5.973333l-3.370667-4.138667a42.666667 42.666667 0 0 1 5.973333-56.106666l4.181334-3.413334 208.981333-148.181333a64 64 0 0 1 65.493333-5.12l5.589334 3.157333 199.253333 125.354667 128.426667-220.586667z" fill="#191919" p-id="3749"></path><path d="M938.7904 512m42.666667 0l0 0q42.666667 0 42.666666 42.666667l0 426.666666q0 42.666667-42.666666 42.666667l0 0q-42.666667 0-42.666667-42.666667l0-426.666666q0-42.666667 42.666667-42.666667Z" fill="#191919" p-id="3750"></path></svg>