<svg t="1725535198606" class="icon" viewBox="0 0 1024 1024" version="1.1" xmlns="http://www.w3.org/2000/svg" p-id="8170" width="256" height="256"><path d="M797.4 720.4l-54.2-45.9V431.6c0-61.6-24-119.6-67.6-163.2-36.3-36.3-82.6-59-132.7-65.6v-6.2c0-16.6-13.4-30-30-30s-30 13.4-30 30v6.1c-50.4 6.4-97 29.2-133.6 65.7-43.6 43.6-67.6 101.5-67.6 163.2v242.8l-54.9 45.9c-9.7 8.1-13.3 21.4-9 33.3s15.6 19.8 28.2 19.8h171c5.7 47.3 46.1 84.1 95 84.1s89.2-36.8 95-84.1h171c12.6 0 23.8-7.9 28.2-19.7s0.8-25.2-8.8-33.3z m-285.4 77c-15.6 0-28.9-10.1-33.7-24.1h67.5c-4.9 14-18.2 24.1-33.8 24.1z m-183.3-84.1l2.2-1.8c6.8-5.7 10.8-14.1 10.8-23V431.6c0-94.2 76.6-170.7 170.7-170.7 45.6 0 88.5 17.8 120.7 50 32.2 32.3 50 75.1 50 120.7v256.8c0 8.8 3.9 17.2 10.6 22.9l2.3 2H328.7z" fill="#262626" p-id="8171"></path></svg>