<svg t="1721028077676" class="icon" viewBox="0 0 1024 1024" version="1.1" xmlns="http://www.w3.org/2000/svg" p-id="5038" width="200" height="200"><path d="M869.5808 69.12L1024 358.7584c0 16.2816-10.1376 35.8912-10.1376 35.8912S523.6224 962.304 518.3488 967.68a17.6128 17.6128 0 0 1-24.9856-0.256C485.0688 958.976 17.6128 394.752 17.6128 394.752S0 376.064 0 358.8096L159.5392 69.12c5.12-9.728 8.192-17.92 17.6128-17.92h676.7616c6.4-0.1024 12.0832 11.5712 15.6672 17.92zM768 384.512V307.2h-118.1696L492.3392 499.3024V307.2H256v77.312h118.1696s-4.4544 291.9936 66.2528 280.7808l248.832-280.7808H768z" fill="#bfbfbf" p-id="5039"></path></svg>