<svg t="1715760372483" class="icon" viewBox="0 0 1024 1024" version="1.1" xmlns="http://www.w3.org/2000/svg" p-id="47457" width="32" height="32"><path d="M401.408 124.928v276.48H124.928V124.928h276.48m36.864-73.728H88.064c-20.48 0-36.864 16.384-36.864 36.864v350.208c0 20.48 16.384 36.864 36.864 36.864h350.208c20.48 0 36.864-16.384 36.864-36.864V88.064c0-20.48-16.384-36.864-36.864-36.864zM899.072 124.928v276.48H622.592V124.928h276.48m36.864-73.728H585.728c-20.48 0-36.864 16.384-36.864 36.864v350.208c0 20.48 16.384 36.864 36.864 36.864h350.208c20.48 0 36.864-16.384 36.864-36.864V88.064c0-20.48-16.384-36.864-36.864-36.864zM899.072 622.592v276.48H622.592V622.592h276.48m36.864-73.728H585.728c-20.48 0-36.864 16.384-36.864 36.864v350.208c0 20.48 16.384 36.864 36.864 36.864h350.208c20.48 0 36.864-16.384 36.864-36.864V585.728c0-20.48-16.384-36.864-36.864-36.864zM401.408 622.592v276.48H124.928V622.592h276.48m36.864-73.728H88.064c-20.48 0-36.864 16.384-36.864 36.864v350.208c0 20.48 16.384 36.864 36.864 36.864h350.208c20.48 0 36.864-16.384 36.864-36.864V585.728c0-20.48-16.384-36.864-36.864-36.864z" p-id="47458"></path></svg>