<svg t="1721214158297" class="icon" viewBox="0 0 1024 1024" version="1.1" xmlns="http://www.w3.org/2000/svg" p-id="2770" width="200" height="200"><path d="M891.733333 298.666667c-21.333333-98.133333-183.466667-170.666667-379.733333-170.666667-196.266667 0-358.4 76.8-379.733333 170.666667H128v469.333333h4.266667c21.333333 98.133333 183.466667 170.666667 379.733333 170.666667 196.266667 0 358.4-76.8 379.733333-170.666667h4.266667l-4.266667-469.333333zM810.666667 746.666667c0 4.266667-4.266667 29.866667-64 59.733333-55.466667 25.6-140.8 46.933333-234.666667 46.933333s-179.2-21.333333-234.666667-46.933333C217.6 776.533333 213.333333 750.933333 213.333333 746.666667v-93.866667c17.066667 8.533333 34.133333 21.333333 55.466667 29.866667 64 25.6 149.333333 42.666667 243.2 42.666666 89.6 0 174.933333-17.066667 243.2-42.666666 21.333333-8.533333 38.4-17.066667 55.466667-29.866667v93.866667z m0-213.333334c0 4.266667-4.266667 29.866667-64 59.733334-55.466667 25.6-140.8 46.933333-234.666667 46.933333s-179.2-21.333333-234.666667-46.933333C217.6 563.2 213.333333 537.6 213.333333 533.333333v-93.866666c68.266667 42.666667 179.2 72.533333 298.666667 72.533333s226.133333-29.866667 298.666667-72.533333v93.866666z m-64-153.6c-55.466667 25.6-140.8 46.933333-234.666667 46.933334s-179.2-21.333333-234.666667-46.933334C217.6 349.866667 213.333333 324.266667 213.333333 320s4.266667-29.866667 64-59.733333C332.8 234.666667 418.133333 213.333333 512 213.333333s179.2 21.333333 234.666667 46.933334c59.733333 29.866667 64 55.466667 64 59.733333s-4.266667 29.866667-64 59.733333z" p-id="2771"></path></svg>