<svg t="1721819511976" class="icon" viewBox="0 0 1024 1024" version="1.1" xmlns="http://www.w3.org/2000/svg" p-id="3641" width="200" height="200"><path d="M64.068267 751.854933a208.145067 208.145067 0 0 0 416.290133 0V543.744h-208.213333a208.110933 208.110933 0 0 0-208.0768 208.145067z m340.718933 0a132.778667 132.778667 0 0 1-132.642133 132.642134 132.8128 132.8128 0 0 1-132.642134-132.642134 132.8128 132.8128 0 0 1 132.642134-132.642133h132.642133v132.642133zM959.931733 272.145067a208.145067 208.145067 0 0 0-416.290133 0v208.145066h208.145067c115.029333 0 208.145067-93.184 208.145066-208.145066z m-340.753066 0a132.778667 132.778667 0 0 1 132.608-132.642134 132.8128 132.8128 0 0 1 132.642133 132.642134 132.778667 132.778667 0 0 1-132.642133 132.642133H619.178667V272.145067zM272.145067 480.256h208.145066V272.145067a208.145067 208.145067 0 1 0-208.145066 208.145066z m0-340.7872a132.778667 132.778667 0 0 1 132.642133 132.642133v132.642134H272.145067a132.778667 132.778667 0 0 1-132.642134-132.642134 132.8128 132.8128 0 0 1 132.642134-132.642133zM751.854933 543.744H543.744v208.145067a208.145067 208.145067 0 1 0 208.145067-208.145067z m0 340.7872a132.778667 132.778667 0 0 1-132.642133-132.642133v-132.642134h132.642133a132.778667 132.778667 0 0 1 132.642134 132.642134 132.8128 132.8128 0 0 1-132.642134 132.642133z" fill="#626BFF" p-id="3642"></path></svg>