<svg t="1713423510456" class="icon" viewBox="0 0 1024 1024" version="1.1" xmlns="http://www.w3.org/2000/svg" p-id="3319" width="200" height="200"><path d="M887.2 872.3H164.4c-17.5 0-31.7-14.2-31.7-31.7V153.3c0-17.5 14.2-31.7 31.7-31.7s31.7 14.2 31.7 31.7v655.6h691.1c17.5 0 31.7 14.2 31.7 31.7s-14.2 31.7-31.7 31.7z" fill="#666666" p-id="3320"></path><path d="M164.4 695.4c-4 0-8-0.7-11.9-2.3-16.2-6.6-24-25.1-17.4-41.3 31.4-77.3 142-329.5 245.9-329.9h0.3c24.1 0 57.7 12.1 81.6 69.4 39 93.8 81.3 127.9 107.9 128.5h0.7c22.9 0 47.5-24.4 67.5-67.2 47.1-100.6 94.5-146.5 145.2-140 61.9 7.9 104.2 90.2 137.1 267 3.2 17.2-8.1 33.7-25.3 36.9-17.4 3.2-33.7-8.2-37-25.3-38.7-207.8-81-215.5-82.8-215.8-10-1.2-40 19-79.8 104-40.8 87.1-90.7 104.4-127 103.7-43.9-1-108.1-30.8-165-167.5-9.3-22.4-18.3-30.4-23.1-30.4-40.9 0.2-131.7 153.2-187.5 290.4-5 12.3-16.9 19.8-29.4 19.8zM204.3 213c-8.1 0-16.2-3.1-22.4-9.3L160 181.8l-26 22.5c-13.2 11.4-33.3 9.9-44.7-3.3-11.4-13.3-9.9-33.3 3.3-44.7l48.3-41.6c12.6-10.9 31.4-10.1 43.1 1.6l42.6 42.6c12.4 12.4 12.4 32.4 0 44.8-6.1 6.2-14.2 9.3-22.3 9.3zM868.1 917c-8.1 0-16.2-3.1-22.4-9.3-12.4-12.4-12.4-32.4 0-44.8l21.8-21.8-22.4-26c-11.4-13.3-9.9-33.3 3.3-44.7 13.2-11.4 33.3-10 44.7 3.3l41.6 48.3c10.8 12.6 10.1 31.4-1.6 43.1l-42.6 42.6c-6.2 6.2-14.3 9.3-22.4 9.3z" fill="#666666" p-id="3321"></path></svg>