<svg t="1720581132078" class="icon" viewBox="0 0 1024 1024" version="1.1" xmlns="http://www.w3.org/2000/svg" p-id="7968" width="200" height="200"><path d="M911.381 80.85H112.619a36.306 36.306 0 0 0-36.307 36.307v617.226a36.306 36.306 0 0 0 36.307 36.307h290.459v99.845h-81.692a36.307 36.307 0 0 0 0 72.615h381.228a36.307 36.307 0 0 0 0-72.615h-81.692V770.69h290.459a36.306 36.306 0 0 0 36.307-36.307V117.157a36.306 36.306 0 0 0-36.307-36.307z m-36.307 617.225H148.926v-544.61h726.148z" fill="" p-id="7969"></path></svg>