<svg t="1725522788998" class="icon" viewBox="0 0 1024 1024" version="1.1" xmlns="http://www.w3.org/2000/svg" p-id="1498" width="200" height="200"><path d="M520.669802 787.0254q-8.669802 3.853246-17.339604 0L221.079962 651.198495q-8.669802-4.816557-11.559736-14.449671l-69.35842-305.369708q-1.926623-9.633114 3.853246-17.339605L339.567262 69.35842q5.779868-7.706491 15.412983-7.706491h314.03951q9.633114 0 15.412983 7.706491l195.55221 244.681091q5.779868 7.706491 3.853246 17.339605l-69.35842 305.369708q-2.889934 9.633114-11.559736 14.449671L520.669802 787.0254m26.972719 54.908749l282.250235-135.826905q16.376294-7.706491 28.417686-22.156162t15.894638-32.752587l69.35842-305.369709q4.816557-18.302916 0.481655-36.605832T928.150517 275.507056L732.598307 30.825964q-11.559737-14.449671-28.417686-22.637817T669.019755 0H354.980245q-18.302916 0-35.160866 8.188147T291.401693 30.825964L95.849483 275.507056q-11.559737 15.412982-15.894638 33.715898t0.481655 36.605832l69.35842 305.369709q3.853246 18.302916 15.894638 32.752587t28.417686 22.156162l282.250235 135.826905q17.339605 8.669802 35.642521 8.669802t35.642521-8.669802m-54.908749-680.097837q-55.87206 3.853246-104.519285 32.270932T307.777987 268.763876l-41.42239-21.192851q-5.779868-2.889934-12.041392-0.963311t-9.633114 7.224835q-3.37159 5.298213-1.926623 11.559737T249.979304 275.507056l39.495767 25.046095q-24.082785 51.055503-24.082785 107.40922T289.475071 515.37159l-38.532456 25.046096q-5.779868 3.853246-7.224835 10.114769t1.926623 11.559737q3.37159 5.298213 9.633113 7.224835t11.078081-0.963311l42.385701-21.192851q31.789276 46.238946 80.436501 74.174977T493.697084 653.125118l2.889934 47.202257q0 6.74318 4.816557 11.078081t11.078081 4.334901q6.261524 0 11.078081-4.334901t4.816557-11.078081l2.889934-47.202257q55.87206-3.853246 104.519285-32.270932T716.222013 546.197554l41.42239 21.192851q5.779868 2.889934 12.041392 0.963311t9.633114-7.224835q3.37159-5.298213 1.926623-11.559737T774.020696 539.454374l-39.495767-25.046096q24.082785-51.055503 24.082785-107.409219T734.524929 300.553151l38.532456-26.009407q5.779868-3.853246 7.224835-10.114769t-1.444967-11.559737q-2.889934-5.298213-9.151458-7.224835t-12.041392 0.963311l-42.385701 21.19285q-31.789276-46.238946-80.436501-74.174976T530.302916 161.836312l-2.889934-47.202257q0-6.74318-4.816557-11.078081T511.518344 99.221072q-6.261524 0-11.078081 4.334902T495.623706 114.634055l-2.889934 47.202257m-2.889934 61.651929l-3.853245 84.771402q-26.972719 6.74318-47.202258 26.972718l-75.138288-38.532455q22.156162-29.862653 55.390405-49.128881t70.803386-24.082784M341.493885 334.26905l71.285043 46.238946q-7.706491 26.972719 0 54.908749l-70.321731 45.275635q-15.412982-34.67921-15.412983-72.730009t14.449671-73.693321m22.156162 183.992474l75.138288-38.532455q20.229539 20.229539 47.202258 26.972718l4.816557 84.771402q-37.569144-4.816557-70.803387-23.601129T363.650047 518.261524m170.506115 73.211665l3.853245-84.771402q27.93603-6.74318 47.202258-26.972718l75.138288 37.569144q-22.156162 30.825964-55.390405 50.092192T534.156162 591.473189m148.349953-110.780809l-71.285043-46.238946q7.706491-26.972719 0-54.908749l70.321731-45.275635q15.412982 34.67921 15.412983 72.730009T682.506115 480.69238m-22.156162-183.992474l-75.138288 38.532455q-20.229539-20.229539-47.202258-26.972718l-4.816557-84.771402q37.569144 4.816557 70.803387 23.601129T660.349953 296.699906m-148.349953 59.725306l40.459078 19.266227 9.633114 43.349013-27.93603 34.679209h-44.312324l-27.93603-34.679209 9.633114-43.349013 40.459078-19.266227z" p-id="1499"></path></svg>