<svg t="1713525855508" class="icon" viewBox="0 0 1024 1024" version="1.1" xmlns="http://www.w3.org/2000/svg" p-id="5957" width="32" height="32"><path d="M866.461538 0a157.538462 157.538462 0 0 1 157.538462 157.538462v472.615384a157.538462 157.538462 0 0 1-157.538462 157.538462H157.538462a157.538462 157.538462 0 0 1-157.538462-157.538462V157.538462a157.538462 157.538462 0 0 1 157.538462-157.538462h708.923076z m-14.178461 197.710769a36.470154 36.470154 0 0 0-51.751385-0.551384L509.243077 482.855385 395.736615 333.981538a36.312615 36.312615 0 0 0-55.768615-2.756923L170.929231 513.102769a36.627692 36.627692 0 0 0 53.563077 49.939693l139.500307-150.134154 112.482462 147.298461a37.100308 37.100308 0 0 0 26.466461 14.336h2.599385a36.548923 36.548923 0 0 0 25.6-10.397538l320.590769-314.919385a36.391385 36.391385 0 0 0 0.472616-51.593846z" fill="#3A6FFF" p-id="5958"></path><path d="M157.538462 866.461538m59.076923 0l590.76923 0q59.076923 0 59.076923 59.076924l0 0q0 59.076923-59.076923 59.076923l-590.76923 0q-59.076923 0-59.076923-59.076923l0 0q0-59.076923 59.076923-59.076924Z" fill="#3A6FFF" p-id="5959"></path></svg>