<svg t="1718864021558" class="icon" viewBox="0 0 1024 1024" version="1.1" xmlns="http://www.w3.org/2000/svg" p-id="4106" width="200" height="200"><path d="M840.31 553.154c-24.616 0-41.026-16.41-41.026-41.026 0-24.616 16.41-41.026 41.026-41.026 24.616 0 41.026 16.41 41.026 41.026 0 24.616-16.411 41.026-41.026 41.026z m0-164.106c-69.745 0-123.079 53.333-123.079 123.079s53.334 123.079 123.079 123.079 123.079-53.333 123.079-123.079-53.335-123.079-123.079-123.079zM512.099 553.154c-24.616 0-41.026-16.41-41.026-41.026 0-24.616 16.41-41.026 41.026-41.026 24.616 0 41.026 16.41 41.026 41.026 0.001 24.616-16.41 41.026-41.026 41.026z m0-164.106c-69.745 0-123.079 53.333-123.079 123.079s53.334 123.079 123.079 123.079 123.079-53.333 123.079-123.079-53.334-123.079-123.079-123.079z m-328.21 164.106c-24.616 0-41.026-16.41-41.026-41.026 0-24.616 16.411-41.026 41.026-41.026 24.616 0 41.026 16.41 41.026 41.026 0.001 24.616-16.41 41.026-41.026 41.026z m0-164.106c-69.745 0-123.079 53.333-123.079 123.079s53.334 123.079 123.079 123.079 123.079-53.333 123.079-123.079-53.334-123.079-123.079-123.079z" fill="" p-id="4107"></path></svg>