<svg t="1721875228626" class="icon" viewBox="0 0 1024 1024" version="1.1" xmlns="http://www.w3.org/2000/svg" p-id="13303" width="200" height="200"><path d="M512 1024C230.4 1024 0 793.6 0 512S230.4 0 512 0s512 230.4 512 512-230.4 512-512 512z m0-938.666667C277.333333 85.333333 85.333333 277.333333 85.333333 512s192 426.666667 426.666667 426.666667 426.666667-192 426.666667-426.666667S746.666667 85.333333 512 85.333333z" fill="#2c2c2c" p-id="13304"></path><path d="M725.333333 469.333333H401.066667l76.8-76.8c17.066667-17.066667 17.066667-42.666667 0-59.733333s-42.666667-17.066667-59.733334 0l-149.333333 149.333333c-4.266667 4.266667-8.533333 8.533333-8.533333 12.8-4.266667 8.533333-4.266667 21.333333 0 34.133334 4.266667 4.266667 4.266667 8.533333 8.533333 12.8l149.333333 149.333333c8.533333 8.533333 21.333333 12.8 29.866667 12.8s21.333333-4.266667 29.866667-12.8c17.066667-17.066667 17.066667-42.666667 0-59.733333L401.066667 554.666667H725.333333c25.6 0 42.666667-17.066667 42.666667-42.666667s-17.066667-42.666667-42.666667-42.666667z" fill="#2c2c2c" p-id="13305"></path></svg>