<?xml version="1.0" standalone="no"?><!DOCTYPE svg PUBLIC "-//W3C//DTD SVG 1.1//EN" "http://www.w3.org/Graphics/SVG/1.1/DTD/svg11.dtd"><svg t="1704272779856" class="icon" viewBox="0 0 1024 1024" version="1.1" xmlns="http://www.w3.org/2000/svg" p-id="938" xmlns:xlink="http://www.w3.org/1999/xlink" width="200" height="200"><path d="M94.814815 85.333333m142.222222 0l549.925926 0q142.222222 0 142.222222 142.222223l0 549.925925q0 142.222222-142.222222 142.222223l-549.925926 0q-142.222222 0-142.222222-142.222223l0-549.925925q0-142.222222 142.222222-142.222223Z" fill="#6F8CFF" p-id="939"></path><path d="M390.637037 246.518519c0 31.023407 9.367704 63.213037 43.614815 63.213037h163.555555c34.398815 0 54.518519-25.761185 54.518519-63.213037h43.614815c25.66637 0 43.614815 12.439704 43.614815 40.637629v390.096593C739.555556 706.465185 720.507259 720.592593 698.661926 720.592593H344.291556C318.122667 720.592593 303.407407 705.896296 303.407407 677.252741V287.156148C303.407407 261.622519 318.606222 246.518519 341.57037 246.518519z m258.010074 194.389333c-8.950519-8.798815-18.849185-3.527111-23.296 0.891259L516.039111 550.494815l-62.008889-62.245926c-2.967704-2.939259-11.529481-8.305778-22.290963 0.625778-8.789333 9.130667-4.105481 18.507852-1.137778 21.447111l73.358223 74.107259c2.958222 2.939259 17.891556 5.831111 23.485629 0.265482l123.704889-123.183408c4.437333-4.408889 4.456296-15.748741-2.503111-20.603259zM593.825185 226.977185c17.758815 0 31.962074 12.705185 31.952593 28.416 0 15.739259-14.212741 28.472889-31.061334 28.472889H449.128296c-17.73037 0-31.943111-12.743111-31.943111-28.472889 0-15.710815 14.184296-28.416 31.943111-28.416z" fill="#FFFFFF" fill-opacity=".398" opacity=".859" p-id="940"></path><path d="M371.674074 227.555556c0 31.023407 9.367704 63.213037 43.614815 63.213037h163.555555c34.398815 0 54.518519-25.761185 54.518519-63.213037h43.614815c25.66637 0 43.614815 12.439704 43.614815 40.637629v390.096593C720.592593 687.502222 701.544296 701.62963 679.698963 701.62963H325.328593C299.159704 701.62963 284.444444 686.933333 284.444444 658.289778V268.193185C284.444444 242.659556 299.643259 227.555556 322.607407 227.555556z m258.010074 194.389333c-8.950519-8.798815-18.849185-3.527111-23.296 0.891259L497.076148 531.531852l-62.008889-62.245926c-2.967704-2.939259-11.529481-8.305778-22.290963 0.625778-8.789333 9.130667-4.105481 18.507852-1.137777 21.447111l73.358222 74.107259c2.958222 2.939259 17.891556 5.831111 23.485629 0.265482l123.704889-123.183408c4.437333-4.408889 4.456296-15.748741-2.503111-20.603259zM574.862222 208.014222c17.758815 0 31.962074 12.705185 31.952593 28.416 0 15.739259-14.212741 28.472889-31.061334 28.472889H430.165333c-17.73037 0-31.943111-12.743111-31.943111-28.472889 0-15.710815 14.184296-28.416 31.943111-28.416z" fill="#FFFFFF" opacity=".859" p-id="941"></path><path d="M227.555556 815.407407c0 15.710815 129.46963 28.444444 289.185185 28.444445S805.925926 831.118222 805.925926 815.407407s-129.46963-28.444444-289.185185-28.444444S227.555556 799.696593 227.555556 815.407407z" fill="#FFFFFF" opacity=".327" p-id="942"></path></svg>