<?xml version="1.0" standalone="no"?><!DOCTYPE svg PUBLIC "-//W3C//DTD SVG 1.1//EN" "http://www.w3.org/DbGraphics/SVG/1.1/DTD/svg11.dtd"><svg t="1704273698747" class="icon" viewBox="0 0 1024 1024" version="1.1" xmlns="http://www.w3.org/2000/svg" p-id="2281" xmlns:xlink="http://www.w3.org/1999/xlink" width="200" height="200"><path d="M737.148 541.92h-256.85V286.073c0-17.673-14.327-32-32-32h-288.85c-17.673 0-32 14.327-32 32v576.698c0 17.673 14.327 32 32 32h577.7c17.673 0 32-14.327 32-32V573.92c0-17.673-14.327-32-32-32z m-320.85-223.847V541.92h-224.85V318.073h224.85z m-224.85 288.85h224.85v223.848h-224.85V606.923z m513.7 223.848h-224.85V605.92h224.85v224.851z" fill="" p-id="2282"></path><path d="M843.523 146.698h-280c-17.132 0-31.02 13.888-31.02 31.02v280c0 17.132 13.888 31.02 31.02 31.02h280c17.132 0 31.02-13.888 31.02-31.02v-280c0-17.132-13.888-31.02-31.02-31.02z m-31.019 280H594.543V208.737h217.961v217.961z" fill="" p-id="2283"></path><path d="M671.523 285.718h64v64h-64z" fill="" p-id="2284"></path></svg>