<svg t="1713525814400" class="icon" viewBox="0 0 1024 1024" version="1.1" xmlns="http://www.w3.org/2000/svg" p-id="4943" width="32" height="32"><path d="M589.2 306.8c-22-118.5-125.2-204.2-245.7-204.2h-1.3c-137.9 0-250 112.1-250.2 249.9-0.1 120.9 86 224.3 204.9 246.2 1.9 0.1 3.8 0.1 5.7 0h0.6c8.6-0.1 16.9-3.8 22.8-10 10.7-12.8 9.1-31.9-3.7-42.7-4.1-3.5-9.1-5.8-14.5-6.8v-0.1c-102.4-19.4-170.1-118.5-150.9-221C176.1 215.4 275.3 147.5 378 166.7c37.7 7.1 72 25.1 99.1 52.3 27.1 27.1 45.1 61.2 52.2 98.8 4.2 16.1 20.6 26 36.8 21.9 14.9-3.8 24.7-17.9 23.1-32.9z" fill="#008AFF" p-id="4944"></path><path d="M203.1 353.5c0.2 37.4 15 72.5 41.7 98.9 26.4 26.1 61.4 40.4 98.5 40.4h0.9c2.2 0 4.3-0.1 6.5-0.2l7.6-0.4 155.1 465.4c3.8 11.3 13.8 19.3 25.6 20.6h4.1c10.9 0 21-6 26.2-15.7l0.1-0.1 138.1-249 245-135.2c7.1-3.9 12.2-10.4 14.5-18.2 2.2-7.8 1.3-16-2.6-23.1-2.6-4.6-6.2-8.4-10.7-11.2l-6.4-2.1-465.5-155.1 0.5-7.7c2.2-37.3-10.2-73.3-35-101.2s-59-44.6-96.3-46.9c-2.9-0.2-5.8-0.3-8.7-0.3-37.4 0.2-72.5 15-98.8 41.7-26.3 26.6-40.6 61.9-40.4 99.4z m659.3 205.8L670.3 665.4c-4.9 2.7-9 6.8-11.9 11.7L549.2 873l-157-470.4 470.2 156.7zM265.3 331.8c9.5-34.5 41.2-58.5 77-58.3h0.1c35.4 0 66.9 23.8 76.5 58l5.1 18.1-70.4-23.4c-10.9-3.8-22.7-1.1-31 6.9-8.3 8.1-11.1 20.5-7.2 31.4l0.1 0.2 23.3 69.9-18.1-5c-42.2-11.6-67.1-55.5-55.4-97.8z" fill="#008AFF" p-id="4945"></path></svg>